<svg width="7" height="12" viewBox="0 0 7 12" fill="none" xmlns="http://www.w3.org/2000/svg">
<path d="M2.375 5.73879L6.275 9.64833C6.45833 9.83211 6.55 10.066 6.55 10.35C6.55 10.6341 6.45833 10.868 6.275 11.0518C6.09167 11.2355 5.85833 11.3274 5.575 11.3274C5.29167 11.3274 5.05833 11.2355 4.875 11.0518L0.275 6.4405C0.175 6.34025 0.104167 6.23166 0.0625 6.1147C0.0208333 5.99775 0 5.87245 0 5.73879C0 5.60513 0.0208333 5.47982 0.0625 5.36287C0.104167 5.24592 0.175 5.13732 0.275 5.03707L4.875 0.425819C5.05833 0.242037 5.29167 0.150146 5.575 0.150146C5.85833 0.150146 6.09167 0.242037 6.275 0.425819C6.45833 0.609601 6.55 0.843505 6.55 1.12753C6.55 1.41156 6.45833 1.64546 6.275 1.82924L2.375 5.73879Z" fill="#EB51C2"/>
</svg>
